solid OpenSCAD_Model
  facet normal 0.195091 0.980785 -0
    outer loop
      vertex 10.3457 2.3097 -3.5
      vertex 9.45294 2.48728 3.5
      vertex 10.3457 2.3097 3.5
    endloop
  endfacet
  facet normal 0.195091 0.980785 0
    outer loop
      vertex 9.45294 2.48728 3.5
      vertex 10.3457 2.3097 -3.5
      vertex 9.45294 2.48728 -3.5
    endloop
  endfacet
  facet normal 0.83147 0.55557 0
    outer loop
      vertex 11.6987 0.956708 3.5
      vertex 11.1567 1.76777 -3.5
      vertex 11.1567 1.76777 3.5
    endloop
  endfacet
  facet normal 0.83147 0.55557 0
    outer loop
      vertex 11.1567 1.76777 -3.5
      vertex 11.6987 0.956708 3.5
      vertex 11.6987 0.956708 -3.5
    endloop
  endfacet
  facet normal 0.980785 -0.19509 0
    outer loop
      vertex 11.6987 -0.956708 3.5
      vertex 11.889 0 -3.5
      vertex 11.889 0 3.5
    endloop
  endfacet
  facet normal 0.980785 -0.19509 0
    outer loop
      vertex 11.889 0 -3.5
      vertex 11.6987 -0.956708 3.5
      vertex 11.6987 -0.956708 -3.5
    endloop
  endfacet
  facet normal 0.55557 0.83147 -0
    outer loop
      vertex 11.1567 1.76777 -3.5
      vertex 10.3457 2.3097 3.5
      vertex 11.1567 1.76777 3.5
    endloop
  endfacet
  facet normal 0.55557 0.83147 0
    outer loop
      vertex 10.3457 2.3097 3.5
      vertex 11.1567 1.76777 -3.5
      vertex 10.3457 2.3097 -3.5
    endloop
  endfacet
  facet normal 0.55557 -0.83147 0
    outer loop
      vertex 10.3457 -2.3097 -3.5
      vertex 11.1567 -1.76777 3.5
      vertex 10.3457 -2.3097 3.5
    endloop
  endfacet
  facet normal 0.55557 -0.83147 0
    outer loop
      vertex 11.1567 -1.76777 3.5
      vertex 10.3457 -2.3097 -3.5
      vertex 11.1567 -1.76777 -3.5
    endloop
  endfacet
  facet normal 0.195091 -0.980785 0
    outer loop
      vertex 9.45294 -2.48728 -3.5
      vertex 10.3457 -2.3097 3.5
      vertex 9.45294 -2.48728 3.5
    endloop
  endfacet
  facet normal 0.195091 -0.980785 0
    outer loop
      vertex 10.3457 -2.3097 3.5
      vertex 9.45294 -2.48728 -3.5
      vertex 10.3457 -2.3097 -3.5
    endloop
  endfacet
  facet normal 0.83147 -0.55557 0
    outer loop
      vertex 11.1567 -1.76777 3.5
      vertex 11.6987 -0.956708 -3.5
      vertex 11.6987 -0.956708 3.5
    endloop
  endfacet
  facet normal 0.83147 -0.55557 0
    outer loop
      vertex 11.6987 -0.956708 -3.5
      vertex 11.1567 -1.76777 3.5
      vertex 11.1567 -1.76777 -3.5
    endloop
  endfacet
  facet normal 0 0 -1
    outer loop
      vertex 7.1093 -8.77814 -3.5
      vertex 6.88052 -6.94285 -3.5
      vertex 7.1731 -7.80477 -3.5
    endloop
  endfacet
  facet normal 0 0 -1
    outer loop
      vertex 2.57243 -9.43013 -3.5
      vertex 6.88052 -6.94285 -3.5
      vertex 6.67787 -9.65299 -3.5
    endloop
  endfacet
  facet normal 0 0 -1
    outer loop
      vertex 6.67787 -9.65299 -3.5
      vertex 6.88052 -6.94285 -3.5
      vertex 7.1093 -8.77814 -3.5
    endloop
  endfacet
  facet normal 0 0 -1
    outer loop
      vertex 11.6987 -0.956708 -3.5
      vertex 11.6987 0.956708 -3.5
      vertex 11.889 0 -3.5
    endloop
  endfacet
  facet normal 0 0 -1
    outer loop
      vertex 11.1567 -1.76777 -3.5
      vertex 11.6987 0.956708 -3.5
      vertex 11.6987 -0.956708 -3.5
    endloop
  endfacet
  facet normal 0 0 -1
    outer loop
      vertex 11.1567 -1.76777 -3.5
      vertex 11.1567 1.76777 -3.5
      vertex 11.6987 0.956708 -3.5
    endloop
  endfacet
  facet normal 0 0 -1
    outer loop
      vertex 9.45294 -2.48728 -3.5
      vertex 11.1567 -1.76777 -3.5
      vertex 10.3457 -2.3097 -3.5
    endloop
  endfacet
  facet normal -0 0 -1
    outer loop
      vertex 11.1567 -1.76777 -3.5
      vertex 9.45294 -2.48728 -3.5
      vertex 11.1567 1.76777 -3.5
    endloop
  endfacet
  facet normal 0 0 -1
    outer loop
      vertex 9.45294 2.48728 -3.5
      vertex 11.1567 1.76777 -3.5
      vertex 9.45294 -2.48728 -3.5
    endloop
  endfacet
  facet normal 0 0 -1
    outer loop
      vertex 11.1567 1.76777 -3.5
      vertex 9.45294 2.48728 -3.5
      vertex 10.3457 2.3097 -3.5
    endloop
  endfacet
  facet normal 0 0 -1
    outer loop
      vertex 6.88052 -6.94285 -3.5
      vertex 9.45294 2.48728 -3.5
      vertex 9.45294 -2.48728 -3.5
    endloop
  endfacet
  facet normal -0 0 -1
    outer loop
      vertex 9.45294 2.48728 -3.5
      vertex 6.88052 -6.94285 -3.5
      vertex 6.88052 6.94285 -3.5
    endloop
  endfacet
  facet normal 0 0 -1
    outer loop
      vertex 6.88052 6.94285 -3.5
      vertex 7.1093 8.77814 -3.5
      vertex 7.1731 7.80477 -3.5
    endloop
  endfacet
  facet normal 0 0 -1
    outer loop
      vertex 6.88052 6.94285 -3.5
      vertex 6.67787 9.65299 -3.5
      vertex 7.1093 8.77814 -3.5
    endloop
  endfacet
  facet normal 0 0 -1
    outer loop
      vertex 6.88052 -6.94285 -3.5
      vertex 5.88897 0 -3.5
      vertex 6.88052 6.94285 -3.5
    endloop
  endfacet
  facet normal 0 0 -1
    outer loop
      vertex 2.57243 -9.43013 -3.5
      vertex 6.67787 -9.65299 -3.5
      vertex 5.94449 -10.2962 -3.5
    endloop
  endfacet
  facet normal 0 0 -1
    outer loop
      vertex 2.94449 5.1 -3.5
      vertex 6.88052 6.94285 -3.5
      vertex 5.88897 0 -3.5
    endloop
  endfacet
  facet normal 0 0 -1
    outer loop
      vertex 2.57243 9.43013 -3.5
      vertex 6.88052 6.94285 -3.5
      vertex 2.94449 5.1 -3.5
    endloop
  endfacet
  facet normal 0 0 -1
    outer loop
      vertex 2.57243 -9.43013 -3.5
      vertex 5.94449 -10.2962 -3.5
      vertex 5.0208 -10.6097 -3.5
    endloop
  endfacet
  facet normal 0 0 -1
    outer loop
      vertex 2.57243 -9.43013 -3.5
      vertex 5.0208 -10.6097 -3.5
      vertex 4.04744 -10.5459 -3.5
    endloop
  endfacet
  facet normal 0 0 -1
    outer loop
      vertex 2.57243 -9.43013 -3.5
      vertex 4.04744 -10.5459 -3.5
      vertex 3.17258 -10.1145 -3.5
    endloop
  endfacet
  facet normal 0 0 -1
    outer loop
      vertex 6.88052 -6.94285 -3.5
      vertex 2.94449 -5.1 -3.5
      vertex 5.88897 0 -3.5
    endloop
  endfacet
  facet normal -0 0 -1
    outer loop
      vertex 6.88052 -6.94285 -3.5
      vertex 2.57243 -9.43013 -3.5
      vertex 2.94449 -5.1 -3.5
    endloop
  endfacet
  facet normal 0 0 -1
    outer loop
      vertex -2.57243 -9.43013 -3.5
      vertex 2.94449 -5.1 -3.5
      vertex 2.57243 -9.43013 -3.5
    endloop
  endfacet
  facet normal 0 0 -1
    outer loop
      vertex -2.57243 -9.43013 -3.5
      vertex -2.94449 -5.1 -3.5
      vertex 2.94449 -5.1 -3.5
    endloop
  endfacet
  facet normal 0 0 -1
    outer loop
      vertex -4.04744 -10.5459 -3.5
      vertex -2.57243 -9.43013 -3.5
      vertex -3.17258 -10.1145 -3.5
    endloop
  endfacet
  facet normal -0 0 -1
    outer loop
      vertex -2.57243 -9.43013 -3.5
      vertex -4.04744 -10.5459 -3.5
      vertex -6.88052 -6.94285 -3.5
    endloop
  endfacet
  facet normal 0 0 -1
    outer loop
      vertex -6.88052 -6.94285 -3.5
      vertex -4.04744 -10.5459 -3.5
      vertex -5.0208 -10.6097 -3.5
    endloop
  endfacet
  facet normal 0 0 -1
    outer loop
      vertex -2.57243 -9.43013 -3.5
      vertex -6.88052 -6.94285 -3.5
      vertex -2.94449 -5.1 -3.5
    endloop
  endfacet
  facet normal 0 0 -1
    outer loop
      vertex -6.88052 -6.94285 -3.5
      vertex -5.0208 -10.6097 -3.5
      vertex -5.94449 -10.2962 -3.5
    endloop
  endfacet
  facet normal 0 0 -1
    outer loop
      vertex -5.88897 0 -3.5
      vertex -9.45294 2.48728 -3.5
      vertex -6.88052 6.94285 -3.5
    endloop
  endfacet
  facet normal -0 0 -1
    outer loop
      vertex -5.88897 0 -3.5
      vertex -9.45294 -2.48727 -3.5
      vertex -9.45294 2.48728 -3.5
    endloop
  endfacet
  facet normal 0 0 -1
    outer loop
      vertex -11.1567 -1.76777 -3.5
      vertex -9.45294 -2.48727 -3.5
      vertex -10.3457 -2.3097 -3.5
    endloop
  endfacet
  facet normal 0 0 -1
    outer loop
      vertex -9.45294 -2.48727 -3.5
      vertex -11.1567 -1.76777 -3.5
      vertex -9.45294 2.48728 -3.5
    endloop
  endfacet
  facet normal 0 0 -1
    outer loop
      vertex -11.1567 1.76777 -3.5
      vertex -9.45294 2.48728 -3.5
      vertex -11.1567 -1.76777 -3.5
    endloop
  endfacet
  facet normal 0 0 -1
    outer loop
      vertex -9.45294 2.48728 -3.5
      vertex -11.1567 1.76777 -3.5
      vertex -10.3457 2.3097 -3.5
    endloop
  endfacet
  facet normal 0 0 -1
    outer loop
      vertex -11.6987 -0.956708 -3.5
      vertex -11.1567 1.76777 -3.5
      vertex -11.1567 -1.76777 -3.5
    endloop
  endfacet
  facet normal 0 0 -1
    outer loop
      vertex -11.6987 -0.956708 -3.5
      vertex -11.6987 0.956708 -3.5
      vertex -11.1567 1.76777 -3.5
    endloop
  endfacet
  facet normal 0 -0 -1
    outer loop
      vertex -11.6987 0.956708 -3.5
      vertex -11.6987 -0.956708 -3.5
      vertex -11.889 0 -3.5
    endloop
  endfacet
  facet normal -0 0 -1
    outer loop
      vertex -2.57243 9.43013 -3.5
      vertex -6.88052 6.94285 -3.5
      vertex -6.67787 9.65299 -3.5
    endloop
  endfacet
  facet normal 0 0 -1
    outer loop
      vertex -6.88052 6.94285 -3.5
      vertex -7.1093 8.77814 -3.5
      vertex -6.67787 9.65299 -3.5
    endloop
  endfacet
  facet normal 0 -0 -1
    outer loop
      vertex -7.1093 8.77814 -3.5
      vertex -6.88052 6.94285 -3.5
      vertex -7.1731 7.80477 -3.5
    endloop
  endfacet
  facet normal 0 0 -1
    outer loop
      vertex 6.88052 6.94285 -3.5
      vertex 2.57243 9.43013 -3.5
      vertex 6.67787 9.65299 -3.5
    endloop
  endfacet
  facet normal -0 0 -1
    outer loop
      vertex 6.67787 9.65299 -3.5
      vertex 2.57243 9.43013 -3.5
      vertex 5.94449 10.2962 -3.5
    endloop
  endfacet
  facet normal -0 0 -1
    outer loop
      vertex 5.94449 10.2962 -3.5
      vertex 2.57243 9.43013 -3.5
      vertex 5.0208 10.6097 -3.5
    endloop
  endfacet
  facet normal 0 0 -1
    outer loop
      vertex 5.0208 10.6097 -3.5
      vertex 2.57243 9.43013 -3.5
      vertex 4.04744 10.5459 -3.5
    endloop
  endfacet
  facet normal 0 0 -1
    outer loop
      vertex 4.04744 10.5459 -3.5
      vertex 2.57243 9.43013 -3.5
      vertex 3.17258 10.1145 -3.5
    endloop
  endfacet
  facet normal 0 0 -1
    outer loop
      vertex 2.94449 5.1 -3.5
      vertex -2.57243 9.43013 -3.5
      vertex 2.57243 9.43013 -3.5
    endloop
  endfacet
  facet normal 0 0 -1
    outer loop
      vertex -2.94449 5.1 -3.5
      vertex -2.57243 9.43013 -3.5
      vertex 2.94449 5.1 -3.5
    endloop
  endfacet
  facet normal 0 0 -1
    outer loop
      vertex -6.88052 6.94285 -3.5
      vertex -2.57243 9.43013 -3.5
      vertex -2.94449 5.1 -3.5
    endloop
  endfacet
  facet normal 0 -0 -1
    outer loop
      vertex -4.04744 10.5459 -3.5
      vertex -2.57243 9.43013 -3.5
      vertex -6.67787 9.65299 -3.5
    endloop
  endfacet
  facet normal 0 0 -1
    outer loop
      vertex -2.57243 9.43013 -3.5
      vertex -4.04744 10.5459 -3.5
      vertex -3.17258 10.1145 -3.5
    endloop
  endfacet
  facet normal 0 0 -1
    outer loop
      vertex -6.88052 6.94285 -3.5
      vertex -2.94449 5.1 -3.5
      vertex -5.88897 0 -3.5
    endloop
  endfacet
  facet normal -0 0 -1
    outer loop
      vertex -4.04744 10.5459 -3.5
      vertex -6.67787 9.65299 -3.5
      vertex -5.0208 10.6097 -3.5
    endloop
  endfacet
  facet normal -0 0 -1
    outer loop
      vertex -2.94449 -5.1 -3.5
      vertex -6.88052 -6.94285 -3.5
      vertex -5.88897 0 -3.5
    endloop
  endfacet
  facet normal 0 0 -1
    outer loop
      vertex -6.88052 -6.94285 -3.5
      vertex -5.94449 -10.2962 -3.5
      vertex -6.67787 -9.65299 -3.5
    endloop
  endfacet
  facet normal 0 0 -1
    outer loop
      vertex -9.45294 -2.48727 -3.5
      vertex -5.88897 0 -3.5
      vertex -6.88052 -6.94285 -3.5
    endloop
  endfacet
  facet normal 0 0 -1
    outer loop
      vertex -5.0208 10.6097 -3.5
      vertex -6.67787 9.65299 -3.5
      vertex -5.94449 10.2962 -3.5
    endloop
  endfacet
  facet normal 0 0 -1
    outer loop
      vertex -7.1093 -8.77814 -3.5
      vertex -6.88052 -6.94285 -3.5
      vertex -6.67787 -9.65299 -3.5
    endloop
  endfacet
  facet normal 0 0 -1
    outer loop
      vertex -6.88052 -6.94285 -3.5
      vertex -7.1093 -8.77814 -3.5
      vertex -7.1731 -7.80477 -3.5
    endloop
  endfacet
  facet normal 0 0 1
    outer loop
      vertex 7.1093 8.77814 3.5
      vertex 6.88052 6.94285 3.5
      vertex 7.1731 7.80477 3.5
    endloop
  endfacet
  facet normal -0 0 1
    outer loop
      vertex 2.57243 9.43013 3.5
      vertex 6.88052 6.94285 3.5
      vertex 6.67787 9.65299 3.5
    endloop
  endfacet
  facet normal 0 0 1
    outer loop
      vertex 6.67787 9.65299 3.5
      vertex 6.88052 6.94285 3.5
      vertex 7.1093 8.77814 3.5
    endloop
  endfacet
  facet normal 0 0 1
    outer loop
      vertex 11.6987 0.956708 3.5
      vertex 11.6987 -0.956708 3.5
      vertex 11.889 0 3.5
    endloop
  endfacet
  facet normal 0 0 1
    outer loop
      vertex 11.1567 1.76777 3.5
      vertex 11.6987 -0.956708 3.5
      vertex 11.6987 0.956708 3.5
    endloop
  endfacet
  facet normal 0 0 1
    outer loop
      vertex 11.1567 1.76777 3.5
      vertex 11.1567 -1.76777 3.5
      vertex 11.6987 -0.956708 3.5
    endloop
  endfacet
  facet normal 0 0 1
    outer loop
      vertex 9.45294 2.48728 3.5
      vertex 11.1567 1.76777 3.5
      vertex 10.3457 2.3097 3.5
    endloop
  endfacet
  facet normal 0 0 1
    outer loop
      vertex 11.1567 1.76777 3.5
      vertex 9.45294 2.48728 3.5
      vertex 11.1567 -1.76777 3.5
    endloop
  endfacet
  facet normal 0 0 1
    outer loop
      vertex 9.45294 -2.48728 3.5
      vertex 11.1567 -1.76777 3.5
      vertex 9.45294 2.48728 3.5
    endloop
  endfacet
  facet normal 0 0 1
    outer loop
      vertex 11.1567 -1.76777 3.5
      vertex 9.45294 -2.48728 3.5
      vertex 10.3457 -2.3097 3.5
    endloop
  endfacet
  facet normal 0 0 1
    outer loop
      vertex 6.88052 6.94285 3.5
      vertex 9.45294 -2.48728 3.5
      vertex 9.45294 2.48728 3.5
    endloop
  endfacet
  facet normal 0 0 1
    outer loop
      vertex 9.45294 -2.48728 3.5
      vertex 6.88052 6.94285 3.5
      vertex 6.88052 -6.94285 3.5
    endloop
  endfacet
  facet normal 0 0 1
    outer loop
      vertex 6.88052 -6.94285 3.5
      vertex 7.1093 -8.77814 3.5
      vertex 7.1731 -7.80477 3.5
    endloop
  endfacet
  facet normal 0 0 1
    outer loop
      vertex 6.88052 -6.94285 3.5
      vertex 6.67787 -9.65299 3.5
      vertex 7.1093 -8.77814 3.5
    endloop
  endfacet
  facet normal 0 0 1
    outer loop
      vertex 6.88052 6.94285 3.5
      vertex 5.88897 0 3.5
      vertex 6.88052 -6.94285 3.5
    endloop
  endfacet
  facet normal 0 0 1
    outer loop
      vertex 2.57243 9.43013 3.5
      vertex 6.67787 9.65299 3.5
      vertex 5.94449 10.2962 3.5
    endloop
  endfacet
  facet normal -0 0 1
    outer loop
      vertex 2.94449 -5.1 3.5
      vertex 6.88052 -6.94285 3.5
      vertex 5.88897 0 3.5
    endloop
  endfacet
  facet normal 0 0 1
    outer loop
      vertex 2.57243 -9.43013 3.5
      vertex 6.88052 -6.94285 3.5
      vertex 2.94449 -5.1 3.5
    endloop
  endfacet
  facet normal 0 0 1
    outer loop
      vertex 2.57243 9.43013 3.5
      vertex 5.94449 10.2962 3.5
      vertex 5.0208 10.6097 3.5
    endloop
  endfacet
  facet normal 0 0 1
    outer loop
      vertex 2.57243 9.43013 3.5
      vertex 5.0208 10.6097 3.5
      vertex 4.04744 10.5459 3.5
    endloop
  endfacet
  facet normal 0 0 1
    outer loop
      vertex 2.57243 9.43013 3.5
      vertex 4.04744 10.5459 3.5
      vertex 3.17258 10.1145 3.5
    endloop
  endfacet
  facet normal 0 0 1
    outer loop
      vertex 6.88052 6.94285 3.5
      vertex 2.94449 5.1 3.5
      vertex 5.88897 0 3.5
    endloop
  endfacet
  facet normal 0 0 1
    outer loop
      vertex 6.88052 6.94285 3.5
      vertex 2.57243 9.43013 3.5
      vertex 2.94449 5.1 3.5
    endloop
  endfacet
  facet normal -0 0 1
    outer loop
      vertex -2.57243 9.43013 3.5
      vertex 2.94449 5.1 3.5
      vertex 2.57243 9.43013 3.5
    endloop
  endfacet
  facet normal 0 0 1
    outer loop
      vertex -2.57243 9.43013 3.5
      vertex -2.94449 5.1 3.5
      vertex 2.94449 5.1 3.5
    endloop
  endfacet
  facet normal 0 0 1
    outer loop
      vertex -4.04744 10.5459 3.5
      vertex -2.57243 9.43013 3.5
      vertex -3.17258 10.1145 3.5
    endloop
  endfacet
  facet normal 0 0 1
    outer loop
      vertex -2.57243 9.43013 3.5
      vertex -4.04744 10.5459 3.5
      vertex -6.88052 6.94285 3.5
    endloop
  endfacet
  facet normal 0 0 1
    outer loop
      vertex -6.88052 6.94285 3.5
      vertex -4.04744 10.5459 3.5
      vertex -5.0208 10.6097 3.5
    endloop
  endfacet
  facet normal 0 0 1
    outer loop
      vertex -2.57243 9.43013 3.5
      vertex -6.88052 6.94285 3.5
      vertex -2.94449 5.1 3.5
    endloop
  endfacet
  facet normal 0 0 1
    outer loop
      vertex -6.88052 6.94285 3.5
      vertex -5.0208 10.6097 3.5
      vertex -5.94449 10.2962 3.5
    endloop
  endfacet
  facet normal 0 0 1
    outer loop
      vertex -9.45294 -2.48727 3.5
      vertex -5.88897 0 3.5
      vertex -9.45294 2.48728 3.5
    endloop
  endfacet
  facet normal 0 0 1
    outer loop
      vertex -5.88897 0 3.5
      vertex -9.45294 -2.48727 3.5
      vertex -6.88052 -6.94285 3.5
    endloop
  endfacet
  facet normal 0 0 1
    outer loop
      vertex -11.1567 1.76777 3.5
      vertex -9.45294 2.48728 3.5
      vertex -10.3457 2.3097 3.5
    endloop
  endfacet
  facet normal 0 0 1
    outer loop
      vertex -9.45294 2.48728 3.5
      vertex -11.1567 1.76777 3.5
      vertex -9.45294 -2.48727 3.5
    endloop
  endfacet
  facet normal -0 0 1
    outer loop
      vertex -11.1567 -1.76777 3.5
      vertex -9.45294 -2.48727 3.5
      vertex -11.1567 1.76777 3.5
    endloop
  endfacet
  facet normal 0 0 1
    outer loop
      vertex -9.45294 -2.48727 3.5
      vertex -11.1567 -1.76777 3.5
      vertex -10.3457 -2.3097 3.5
    endloop
  endfacet
  facet normal -0 0 1
    outer loop
      vertex -11.6987 0.956708 3.5
      vertex -11.1567 -1.76777 3.5
      vertex -11.1567 1.76777 3.5
    endloop
  endfacet
  facet normal 0 0 1
    outer loop
      vertex -11.6987 0.956708 3.5
      vertex -11.6987 -0.956708 3.5
      vertex -11.1567 -1.76777 3.5
    endloop
  endfacet
  facet normal 0 -0 1
    outer loop
      vertex -11.6987 -0.956708 3.5
      vertex -11.6987 0.956708 3.5
      vertex -11.889 0 3.5
    endloop
  endfacet
  facet normal 0 0 1
    outer loop
      vertex -2.57243 -9.43013 3.5
      vertex -6.88052 -6.94285 3.5
      vertex -6.67787 -9.65299 3.5
    endloop
  endfacet
  facet normal 0 0 1
    outer loop
      vertex -6.88052 -6.94285 3.5
      vertex -7.1093 -8.77814 3.5
      vertex -6.67787 -9.65299 3.5
    endloop
  endfacet
  facet normal 0 -0 1
    outer loop
      vertex -7.1093 -8.77814 3.5
      vertex -6.88052 -6.94285 3.5
      vertex -7.1731 -7.80477 3.5
    endloop
  endfacet
  facet normal 0 0 1
    outer loop
      vertex 6.88052 -6.94285 3.5
      vertex 2.57243 -9.43013 3.5
      vertex 6.67787 -9.65299 3.5
    endloop
  endfacet
  facet normal 0 0 1
    outer loop
      vertex 6.67787 -9.65299 3.5
      vertex 2.57243 -9.43013 3.5
      vertex 5.94449 -10.2962 3.5
    endloop
  endfacet
  facet normal 0 0 1
    outer loop
      vertex 5.94449 -10.2962 3.5
      vertex 2.57243 -9.43013 3.5
      vertex 5.0208 -10.6097 3.5
    endloop
  endfacet
  facet normal 0 0 1
    outer loop
      vertex 5.0208 -10.6097 3.5
      vertex 2.57243 -9.43013 3.5
      vertex 4.04744 -10.5459 3.5
    endloop
  endfacet
  facet normal 0 0 1
    outer loop
      vertex 4.04744 -10.5459 3.5
      vertex 2.57243 -9.43013 3.5
      vertex 3.17258 -10.1145 3.5
    endloop
  endfacet
  facet normal 0 0 1
    outer loop
      vertex 2.94449 -5.1 3.5
      vertex -2.57243 -9.43013 3.5
      vertex 2.57243 -9.43013 3.5
    endloop
  endfacet
  facet normal -0 0 1
    outer loop
      vertex -2.94449 -5.1 3.5
      vertex -2.57243 -9.43013 3.5
      vertex 2.94449 -5.1 3.5
    endloop
  endfacet
  facet normal -0 0 1
    outer loop
      vertex -6.88052 -6.94285 3.5
      vertex -2.57243 -9.43013 3.5
      vertex -2.94449 -5.1 3.5
    endloop
  endfacet
  facet normal 0 -0 1
    outer loop
      vertex -4.04744 -10.5459 3.5
      vertex -2.57243 -9.43013 3.5
      vertex -6.67787 -9.65299 3.5
    endloop
  endfacet
  facet normal 0 0 1
    outer loop
      vertex -2.57243 -9.43013 3.5
      vertex -4.04744 -10.5459 3.5
      vertex -3.17258 -10.1145 3.5
    endloop
  endfacet
  facet normal 0 0 1
    outer loop
      vertex -6.88052 -6.94285 3.5
      vertex -2.94449 -5.1 3.5
      vertex -5.88897 0 3.5
    endloop
  endfacet
  facet normal 0 0 1
    outer loop
      vertex -4.04744 -10.5459 3.5
      vertex -6.67787 -9.65299 3.5
      vertex -5.0208 -10.6097 3.5
    endloop
  endfacet
  facet normal 0 0 1
    outer loop
      vertex -2.94449 5.1 3.5
      vertex -6.88052 6.94285 3.5
      vertex -5.88897 0 3.5
    endloop
  endfacet
  facet normal 0 0 1
    outer loop
      vertex -6.88052 6.94285 3.5
      vertex -5.94449 10.2962 3.5
      vertex -6.67787 9.65299 3.5
    endloop
  endfacet
  facet normal -0 0 1
    outer loop
      vertex -9.45294 2.48728 3.5
      vertex -5.88897 0 3.5
      vertex -6.88052 6.94285 3.5
    endloop
  endfacet
  facet normal 0 0 1
    outer loop
      vertex -5.0208 -10.6097 3.5
      vertex -6.67787 -9.65299 3.5
      vertex -5.94449 -10.2962 3.5
    endloop
  endfacet
  facet normal -0 0 1
    outer loop
      vertex -7.1093 8.77814 3.5
      vertex -6.88052 6.94285 3.5
      vertex -6.67787 9.65299 3.5
    endloop
  endfacet
  facet normal 0 0 1
    outer loop
      vertex -6.88052 6.94285 3.5
      vertex -7.1093 8.77814 3.5
      vertex -7.1731 7.80477 3.5
    endloop
  endfacet
  facet normal 0.980785 0.19509 0
    outer loop
      vertex 11.889 0 3.5
      vertex 11.6987 0.956708 -3.5
      vertex 11.6987 0.956708 3.5
    endloop
  endfacet
  facet normal 0.980785 0.19509 0
    outer loop
      vertex 11.6987 0.956708 -3.5
      vertex 11.889 0 3.5
      vertex 11.889 0 -3.5
    endloop
  endfacet
  facet normal 0.321439 0.94693 -0
    outer loop
      vertex 5.94449 10.2962 -3.5
      vertex 5.0208 10.6097 3.5
      vertex 5.94449 10.2962 3.5
    endloop
  endfacet
  facet normal 0.321439 0.94693 0
    outer loop
      vertex 5.0208 10.6097 3.5
      vertex 5.94449 10.2962 -3.5
      vertex 5.0208 10.6097 -3.5
    endloop
  endfacet
  facet normal -0.442289 0.896873 0
    outer loop
      vertex 4.04744 10.5459 -3.5
      vertex 3.17258 10.1145 3.5
      vertex 4.04744 10.5459 3.5
    endloop
  endfacet
  facet normal -0.442289 0.896873 0
    outer loop
      vertex 3.17258 10.1145 3.5
      vertex 4.04744 10.5459 -3.5
      vertex 3.17258 10.1145 -3.5
    endloop
  endfacet
  facet normal -0.0654025 0.997859 0
    outer loop
      vertex 5.0208 10.6097 -3.5
      vertex 4.04744 10.5459 3.5
      vertex 5.0208 10.6097 3.5
    endloop
  endfacet
  facet normal -0.0654025 0.997859 0
    outer loop
      vertex 4.04744 10.5459 3.5
      vertex 5.0208 10.6097 -3.5
      vertex 4.04744 10.5459 -3.5
    endloop
  endfacet
  facet normal 0.659346 0.75184 -0
    outer loop
      vertex 6.67787 9.65299 -3.5
      vertex 5.94449 10.2962 3.5
      vertex 6.67787 9.65299 3.5
    endloop
  endfacet
  facet normal 0.659346 0.75184 0
    outer loop
      vertex 5.94449 10.2962 3.5
      vertex 6.67787 9.65299 -3.5
      vertex 5.94449 10.2962 -3.5
    endloop
  endfacet
  facet normal 0.997859 0.0654025 0
    outer loop
      vertex 7.1731 7.80477 3.5
      vertex 7.1093 8.77814 -3.5
      vertex 7.1093 8.77814 3.5
    endloop
  endfacet
  facet normal 0.997859 0.0654025 0
    outer loop
      vertex 7.1093 8.77814 -3.5
      vertex 7.1731 7.80477 3.5
      vertex 7.1731 7.80477 -3.5
    endloop
  endfacet
  facet normal -0.75184 0.659346 0
    outer loop
      vertex 2.57243 9.43013 -3.5
      vertex 3.17258 10.1145 3.5
      vertex 3.17258 10.1145 -3.5
    endloop
  endfacet
  facet normal -0.75184 0.659346 0
    outer loop
      vertex 3.17258 10.1145 3.5
      vertex 2.57243 9.43013 -3.5
      vertex 2.57243 9.43013 3.5
    endloop
  endfacet
  facet normal 0.896873 0.442289 0
    outer loop
      vertex 7.1093 8.77814 3.5
      vertex 6.67787 9.65299 -3.5
      vertex 6.67787 9.65299 3.5
    endloop
  endfacet
  facet normal 0.896873 0.442289 0
    outer loop
      vertex 6.67787 9.65299 -3.5
      vertex 7.1093 8.77814 3.5
      vertex 7.1093 8.77814 -3.5
    endloop
  endfacet
  facet normal 0.94693 -0.321439 0
    outer loop
      vertex 6.88052 6.94285 3.5
      vertex 7.1731 7.80477 -3.5
      vertex 7.1731 7.80477 3.5
    endloop
  endfacet
  facet normal 0.94693 -0.321439 0
    outer loop
      vertex 7.1731 7.80477 -3.5
      vertex 6.88052 6.94285 3.5
      vertex 6.88052 6.94285 -3.5
    endloop
  endfacet
  facet normal -0.659346 0.75184 0
    outer loop
      vertex -5.94449 10.2962 -3.5
      vertex -6.67787 9.65299 3.5
      vertex -5.94449 10.2962 3.5
    endloop
  endfacet
  facet normal -0.659346 0.75184 0
    outer loop
      vertex -6.67787 9.65299 3.5
      vertex -5.94449 10.2962 -3.5
      vertex -6.67787 9.65299 -3.5
    endloop
  endfacet
  facet normal -0.896873 0.442289 0
    outer loop
      vertex -7.1093 8.77814 -3.5
      vertex -6.67787 9.65299 3.5
      vertex -6.67787 9.65299 -3.5
    endloop
  endfacet
  facet normal -0.896873 0.442289 0
    outer loop
      vertex -6.67787 9.65299 3.5
      vertex -7.1093 8.77814 -3.5
      vertex -7.1093 8.77814 3.5
    endloop
  endfacet
  facet normal -0.94693 -0.321439 0
    outer loop
      vertex -6.88052 6.94285 -3.5
      vertex -7.1731 7.80477 3.5
      vertex -7.1731 7.80477 -3.5
    endloop
  endfacet
  facet normal -0.94693 -0.321439 0
    outer loop
      vertex -7.1731 7.80477 3.5
      vertex -6.88052 6.94285 -3.5
      vertex -6.88052 6.94285 3.5
    endloop
  endfacet
  facet normal -0.997859 0.0654025 0
    outer loop
      vertex -7.1731 7.80477 -3.5
      vertex -7.1093 8.77814 3.5
      vertex -7.1093 8.77814 -3.5
    endloop
  endfacet
  facet normal -0.997859 0.0654025 0
    outer loop
      vertex -7.1093 8.77814 3.5
      vertex -7.1731 7.80477 -3.5
      vertex -7.1731 7.80477 3.5
    endloop
  endfacet
  facet normal -0.321439 0.94693 0
    outer loop
      vertex -5.0208 10.6097 -3.5
      vertex -5.94449 10.2962 3.5
      vertex -5.0208 10.6097 3.5
    endloop
  endfacet
  facet normal -0.321439 0.94693 0
    outer loop
      vertex -5.94449 10.2962 3.5
      vertex -5.0208 10.6097 -3.5
      vertex -5.94449 10.2962 -3.5
    endloop
  endfacet
  facet normal 0.75184 0.659346 0
    outer loop
      vertex -2.57243 9.43013 3.5
      vertex -3.17258 10.1145 -3.5
      vertex -3.17258 10.1145 3.5
    endloop
  endfacet
  facet normal 0.75184 0.659346 0
    outer loop
      vertex -3.17258 10.1145 -3.5
      vertex -2.57243 9.43013 3.5
      vertex -2.57243 9.43013 -3.5
    endloop
  endfacet
  facet normal 0.442289 0.896873 -0
    outer loop
      vertex -3.17258 10.1145 -3.5
      vertex -4.04744 10.5459 3.5
      vertex -3.17258 10.1145 3.5
    endloop
  endfacet
  facet normal 0.442289 0.896873 0
    outer loop
      vertex -4.04744 10.5459 3.5
      vertex -3.17258 10.1145 -3.5
      vertex -4.04744 10.5459 -3.5
    endloop
  endfacet
  facet normal 0.0654025 0.997859 -0
    outer loop
      vertex -4.04744 10.5459 -3.5
      vertex -5.0208 10.6097 3.5
      vertex -4.04744 10.5459 3.5
    endloop
  endfacet
  facet normal 0.0654025 0.997859 0
    outer loop
      vertex -5.0208 10.6097 3.5
      vertex -4.04744 10.5459 -3.5
      vertex -5.0208 10.6097 -3.5
    endloop
  endfacet
  facet normal -0.19509 -0.980785 0
    outer loop
      vertex -10.3457 -2.3097 -3.5
      vertex -9.45294 -2.48727 3.5
      vertex -10.3457 -2.3097 3.5
    endloop
  endfacet
  facet normal -0.19509 -0.980785 -0
    outer loop
      vertex -9.45294 -2.48727 3.5
      vertex -10.3457 -2.3097 -3.5
      vertex -9.45294 -2.48727 -3.5
    endloop
  endfacet
  facet normal -0.83147 -0.55557 0
    outer loop
      vertex -11.1567 -1.76777 -3.5
      vertex -11.6987 -0.956708 3.5
      vertex -11.6987 -0.956708 -3.5
    endloop
  endfacet
  facet normal -0.83147 -0.55557 0
    outer loop
      vertex -11.6987 -0.956708 3.5
      vertex -11.1567 -1.76777 -3.5
      vertex -11.1567 -1.76777 3.5
    endloop
  endfacet
  facet normal -0.55557 0.83147 0
    outer loop
      vertex -10.3457 2.3097 -3.5
      vertex -11.1567 1.76777 3.5
      vertex -10.3457 2.3097 3.5
    endloop
  endfacet
  facet normal -0.55557 0.83147 0
    outer loop
      vertex -11.1567 1.76777 3.5
      vertex -10.3457 2.3097 -3.5
      vertex -11.1567 1.76777 -3.5
    endloop
  endfacet
  facet normal -0.55557 -0.83147 0
    outer loop
      vertex -11.1567 -1.76777 -3.5
      vertex -10.3457 -2.3097 3.5
      vertex -11.1567 -1.76777 3.5
    endloop
  endfacet
  facet normal -0.55557 -0.83147 -0
    outer loop
      vertex -10.3457 -2.3097 3.5
      vertex -11.1567 -1.76777 -3.5
      vertex -10.3457 -2.3097 -3.5
    endloop
  endfacet
  facet normal -0.980785 -0.19509 0
    outer loop
      vertex -11.6987 -0.956708 -3.5
      vertex -11.889 0 3.5
      vertex -11.889 0 -3.5
    endloop
  endfacet
  facet normal -0.980785 -0.19509 0
    outer loop
      vertex -11.889 0 3.5
      vertex -11.6987 -0.956708 -3.5
      vertex -11.6987 -0.956708 3.5
    endloop
  endfacet
  facet normal -0.980785 0.19509 0
    outer loop
      vertex -11.889 0 -3.5
      vertex -11.6987 0.956708 3.5
      vertex -11.6987 0.956708 -3.5
    endloop
  endfacet
  facet normal -0.980785 0.19509 0
    outer loop
      vertex -11.6987 0.956708 3.5
      vertex -11.889 0 -3.5
      vertex -11.889 0 3.5
    endloop
  endfacet
  facet normal -0.83147 0.55557 0
    outer loop
      vertex -11.6987 0.956708 -3.5
      vertex -11.1567 1.76777 3.5
      vertex -11.1567 1.76777 -3.5
    endloop
  endfacet
  facet normal -0.83147 0.55557 0
    outer loop
      vertex -11.1567 1.76777 3.5
      vertex -11.6987 0.956708 -3.5
      vertex -11.6987 0.956708 3.5
    endloop
  endfacet
  facet normal -0.195091 0.980785 0
    outer loop
      vertex -9.45294 2.48728 -3.5
      vertex -10.3457 2.3097 3.5
      vertex -9.45294 2.48728 3.5
    endloop
  endfacet
  facet normal -0.195091 0.980785 0
    outer loop
      vertex -10.3457 2.3097 3.5
      vertex -9.45294 2.48728 -3.5
      vertex -10.3457 2.3097 -3.5
    endloop
  endfacet
  facet normal -0.321439 -0.94693 0
    outer loop
      vertex -5.94449 -10.2962 -3.5
      vertex -5.0208 -10.6097 3.5
      vertex -5.94449 -10.2962 3.5
    endloop
  endfacet
  facet normal -0.321439 -0.94693 -0
    outer loop
      vertex -5.0208 -10.6097 3.5
      vertex -5.94449 -10.2962 -3.5
      vertex -5.0208 -10.6097 -3.5
    endloop
  endfacet
  facet normal -0.94693 0.321439 0
    outer loop
      vertex -7.1731 -7.80477 -3.5
      vertex -6.88052 -6.94285 3.5
      vertex -6.88052 -6.94285 -3.5
    endloop
  endfacet
  facet normal -0.94693 0.321439 0
    outer loop
      vertex -6.88052 -6.94285 3.5
      vertex -7.1731 -7.80477 -3.5
      vertex -7.1731 -7.80477 3.5
    endloop
  endfacet
  facet normal -0.997859 -0.0654025 0
    outer loop
      vertex -7.1093 -8.77814 -3.5
      vertex -7.1731 -7.80477 3.5
      vertex -7.1731 -7.80477 -3.5
    endloop
  endfacet
  facet normal -0.997859 -0.0654025 0
    outer loop
      vertex -7.1731 -7.80477 3.5
      vertex -7.1093 -8.77814 -3.5
      vertex -7.1093 -8.77814 3.5
    endloop
  endfacet
  facet normal 0.0654025 -0.997859 0
    outer loop
      vertex -5.0208 -10.6097 -3.5
      vertex -4.04744 -10.5459 3.5
      vertex -5.0208 -10.6097 3.5
    endloop
  endfacet
  facet normal 0.0654025 -0.997859 0
    outer loop
      vertex -4.04744 -10.5459 3.5
      vertex -5.0208 -10.6097 -3.5
      vertex -4.04744 -10.5459 -3.5
    endloop
  endfacet
  facet normal 0.75184 -0.659346 0
    outer loop
      vertex -3.17258 -10.1145 3.5
      vertex -2.57243 -9.43013 -3.5
      vertex -2.57243 -9.43013 3.5
    endloop
  endfacet
  facet normal 0.75184 -0.659346 0
    outer loop
      vertex -2.57243 -9.43013 -3.5
      vertex -3.17258 -10.1145 3.5
      vertex -3.17258 -10.1145 -3.5
    endloop
  endfacet
  facet normal -0.659346 -0.75184 0
    outer loop
      vertex -6.67787 -9.65299 -3.5
      vertex -5.94449 -10.2962 3.5
      vertex -6.67787 -9.65299 3.5
    endloop
  endfacet
  facet normal -0.659346 -0.75184 -0
    outer loop
      vertex -5.94449 -10.2962 3.5
      vertex -6.67787 -9.65299 -3.5
      vertex -5.94449 -10.2962 -3.5
    endloop
  endfacet
  facet normal 0.442289 -0.896873 0
    outer loop
      vertex -4.04744 -10.5459 -3.5
      vertex -3.17258 -10.1145 3.5
      vertex -4.04744 -10.5459 3.5
    endloop
  endfacet
  facet normal 0.442289 -0.896873 0
    outer loop
      vertex -3.17258 -10.1145 3.5
      vertex -4.04744 -10.5459 -3.5
      vertex -3.17258 -10.1145 -3.5
    endloop
  endfacet
  facet normal -0.896873 -0.442289 0
    outer loop
      vertex -6.67787 -9.65299 -3.5
      vertex -7.1093 -8.77814 3.5
      vertex -7.1093 -8.77814 -3.5
    endloop
  endfacet
  facet normal -0.896873 -0.442289 0
    outer loop
      vertex -7.1093 -8.77814 3.5
      vertex -6.67787 -9.65299 -3.5
      vertex -6.67787 -9.65299 3.5
    endloop
  endfacet
  facet normal 0.659346 -0.75184 0
    outer loop
      vertex 5.94449 -10.2962 -3.5
      vertex 6.67787 -9.65299 3.5
      vertex 5.94449 -10.2962 3.5
    endloop
  endfacet
  facet normal 0.659346 -0.75184 0
    outer loop
      vertex 6.67787 -9.65299 3.5
      vertex 5.94449 -10.2962 -3.5
      vertex 6.67787 -9.65299 -3.5
    endloop
  endfacet
  facet normal 0.94693 0.321439 0
    outer loop
      vertex 7.1731 -7.80477 3.5
      vertex 6.88052 -6.94285 -3.5
      vertex 6.88052 -6.94285 3.5
    endloop
  endfacet
  facet normal 0.94693 0.321439 0
    outer loop
      vertex 6.88052 -6.94285 -3.5
      vertex 7.1731 -7.80477 3.5
      vertex 7.1731 -7.80477 -3.5
    endloop
  endfacet
  facet normal 0.896873 -0.442289 0
    outer loop
      vertex 6.67787 -9.65299 3.5
      vertex 7.1093 -8.77814 -3.5
      vertex 7.1093 -8.77814 3.5
    endloop
  endfacet
  facet normal 0.896873 -0.442289 0
    outer loop
      vertex 7.1093 -8.77814 -3.5
      vertex 6.67787 -9.65299 3.5
      vertex 6.67787 -9.65299 -3.5
    endloop
  endfacet
  facet normal 0.997859 -0.0654025 0
    outer loop
      vertex 7.1093 -8.77814 3.5
      vertex 7.1731 -7.80477 -3.5
      vertex 7.1731 -7.80477 3.5
    endloop
  endfacet
  facet normal 0.997859 -0.0654025 0
    outer loop
      vertex 7.1731 -7.80477 -3.5
      vertex 7.1093 -8.77814 3.5
      vertex 7.1093 -8.77814 -3.5
    endloop
  endfacet
  facet normal 0.321439 -0.94693 0
    outer loop
      vertex 5.0208 -10.6097 -3.5
      vertex 5.94449 -10.2962 3.5
      vertex 5.0208 -10.6097 3.5
    endloop
  endfacet
  facet normal 0.321439 -0.94693 0
    outer loop
      vertex 5.94449 -10.2962 3.5
      vertex 5.0208 -10.6097 -3.5
      vertex 5.94449 -10.2962 -3.5
    endloop
  endfacet
  facet normal -0.442289 -0.896873 0
    outer loop
      vertex 3.17258 -10.1145 -3.5
      vertex 4.04744 -10.5459 3.5
      vertex 3.17258 -10.1145 3.5
    endloop
  endfacet
  facet normal -0.442289 -0.896873 -0
    outer loop
      vertex 4.04744 -10.5459 3.5
      vertex 3.17258 -10.1145 -3.5
      vertex 4.04744 -10.5459 -3.5
    endloop
  endfacet
  facet normal -0.75184 -0.659346 0
    outer loop
      vertex 3.17258 -10.1145 -3.5
      vertex 2.57243 -9.43013 3.5
      vertex 2.57243 -9.43013 -3.5
    endloop
  endfacet
  facet normal -0.75184 -0.659346 0
    outer loop
      vertex 2.57243 -9.43013 3.5
      vertex 3.17258 -10.1145 -3.5
      vertex 3.17258 -10.1145 3.5
    endloop
  endfacet
  facet normal -0.0654025 -0.997859 0
    outer loop
      vertex 4.04744 -10.5459 -3.5
      vertex 5.0208 -10.6097 3.5
      vertex 4.04744 -10.5459 3.5
    endloop
  endfacet
  facet normal -0.0654025 -0.997859 -0
    outer loop
      vertex 5.0208 -10.6097 3.5
      vertex 4.04744 -10.5459 -3.5
      vertex 5.0208 -10.6097 -3.5
    endloop
  endfacet
  facet normal 0.866025 0.5 0
    outer loop
      vertex 9.45294 2.48728 3.5
      vertex 6.88052 6.94285 -3.5
      vertex 6.88052 6.94285 3.5
    endloop
  endfacet
  facet normal 0.866025 0.5 0
    outer loop
      vertex 6.88052 6.94285 -3.5
      vertex 9.45294 2.48728 3.5
      vertex 9.45294 2.48728 -3.5
    endloop
  endfacet
  facet normal -0.866025 0.5 0
    outer loop
      vertex -9.45294 2.48728 -3.5
      vertex -6.88052 6.94285 3.5
      vertex -6.88052 6.94285 -3.5
    endloop
  endfacet
  facet normal -0.866025 0.5 0
    outer loop
      vertex -6.88052 6.94285 3.5
      vertex -9.45294 2.48728 -3.5
      vertex -9.45294 2.48728 3.5
    endloop
  endfacet
  facet normal 0 1 -0
    outer loop
      vertex 2.57243 9.43013 -3.5
      vertex -2.57243 9.43013 3.5
      vertex 2.57243 9.43013 3.5
    endloop
  endfacet
  facet normal 0 1 0
    outer loop
      vertex -2.57243 9.43013 3.5
      vertex 2.57243 9.43013 -3.5
      vertex -2.57243 9.43013 -3.5
    endloop
  endfacet
  facet normal -0.866025 -0.5 0
    outer loop
      vertex -6.88052 -6.94285 -3.5
      vertex -9.45294 -2.48727 3.5
      vertex -9.45294 -2.48727 -3.5
    endloop
  endfacet
  facet normal -0.866025 -0.5 0
    outer loop
      vertex -9.45294 -2.48727 3.5
      vertex -6.88052 -6.94285 -3.5
      vertex -6.88052 -6.94285 3.5
    endloop
  endfacet
  facet normal 0 -1 0
    outer loop
      vertex -2.57243 -9.43013 -3.5
      vertex 2.57243 -9.43013 3.5
      vertex -2.57243 -9.43013 3.5
    endloop
  endfacet
  facet normal 0 -1 -0
    outer loop
      vertex 2.57243 -9.43013 3.5
      vertex -2.57243 -9.43013 -3.5
      vertex 2.57243 -9.43013 -3.5
    endloop
  endfacet
  facet normal 0.866025 -0.5 0
    outer loop
      vertex 6.88052 -6.94285 3.5
      vertex 9.45294 -2.48728 -3.5
      vertex 9.45294 -2.48728 3.5
    endloop
  endfacet
  facet normal 0.866025 -0.5 0
    outer loop
      vertex 9.45294 -2.48728 -3.5
      vertex 6.88052 -6.94285 3.5
      vertex 6.88052 -6.94285 -3.5
    endloop
  endfacet
  facet normal -0.866025 -0.5 0
    outer loop
      vertex 5.88897 0 -3.5
      vertex 2.94449 5.1 3.5
      vertex 2.94449 5.1 -3.5
    endloop
  endfacet
  facet normal -0.866025 -0.5 0
    outer loop
      vertex 2.94449 5.1 3.5
      vertex 5.88897 0 -3.5
      vertex 5.88897 0 3.5
    endloop
  endfacet
  facet normal 0.866025 -0.5 0
    outer loop
      vertex -5.88897 0 3.5
      vertex -2.94449 5.1 -3.5
      vertex -2.94449 5.1 3.5
    endloop
  endfacet
  facet normal 0.866025 -0.5 0
    outer loop
      vertex -2.94449 5.1 -3.5
      vertex -5.88897 0 3.5
      vertex -5.88897 0 -3.5
    endloop
  endfacet
  facet normal 0 -1 0
    outer loop
      vertex -2.94449 5.1 -3.5
      vertex 2.94449 5.1 3.5
      vertex -2.94449 5.1 3.5
    endloop
  endfacet
  facet normal 0 -1 -0
    outer loop
      vertex 2.94449 5.1 3.5
      vertex -2.94449 5.1 -3.5
      vertex 2.94449 5.1 -3.5
    endloop
  endfacet
  facet normal -0.866025 0.5 0
    outer loop
      vertex 2.94449 -5.1 -3.5
      vertex 5.88897 0 3.5
      vertex 5.88897 0 -3.5
    endloop
  endfacet
  facet normal -0.866025 0.5 0
    outer loop
      vertex 5.88897 0 3.5
      vertex 2.94449 -5.1 -3.5
      vertex 2.94449 -5.1 3.5
    endloop
  endfacet
  facet normal 0 1 -0
    outer loop
      vertex 2.94449 -5.1 -3.5
      vertex -2.94449 -5.1 3.5
      vertex 2.94449 -5.1 3.5
    endloop
  endfacet
  facet normal 0 1 0
    outer loop
      vertex -2.94449 -5.1 3.5
      vertex 2.94449 -5.1 -3.5
      vertex -2.94449 -5.1 -3.5
    endloop
  endfacet
  facet normal 0.866025 0.5 0
    outer loop
      vertex -2.94449 -5.1 3.5
      vertex -5.88897 0 -3.5
      vertex -5.88897 0 3.5
    endloop
  endfacet
  facet normal 0.866025 0.5 0
    outer loop
      vertex -5.88897 0 -3.5
      vertex -2.94449 -5.1 3.5
      vertex -2.94449 -5.1 -3.5
    endloop
  endfacet
endsolid OpenSCAD_Model
